# xmcd CD database file
#
# Track frame offsets:
#	150
#	25073
#	53361
#	80394
#	98535
#	117864
#	136844
#	157181
#	181502
#	198758
#	224753
#
# Disc length: 3214 seconds
#
# Revision: 0
# Processed by: cddbd v1.5.1PL0 Copyright (c) Steve Scherf et al.
# Submitted via: CDex 1.50beta10
#
DISCID=820c8c0b
DTITLE=Big Bones - So Low
DYEAR=2002
DGENRE=Blues
TTITLE0=The Walk
TTITLE1=The Ghetto (Living In)
TTITLE2=Put You Down Baby
TTITLE3=I Love Her So
TTITLE4=For What
TTITLE5=Comfort And Joy
TTITLE6=I Think She's Pretty
TTITLE7=Date With The Blues
TTITLE8=The Place
TTITLE9=I Want To Walk With You
TTITLE10=So Low
EXTD=YEAR: 2002
EXTT0=
EXTT1=
EXTT2=
EXTT3=
EXTT4=
EXTT5=
EXTT6=
EXTT7=
EXTT8=
EXTT9=
EXTT10=
PLAYORDER=
